<svg width="215" height="282" viewBox="0 0 215 282" fill="none" xmlns="http://www.w3.org/2000/svg">
<path d="M60.3607 167.983C69.2474 167.983 77.7701 164.453 84.0539 158.169C90.3377 151.885 93.8679 143.363 93.8679 134.476C93.8679 115.98 87.1665 107.67 80.465 94.2674C66.0971 65.5451 77.4628 39.9322 107.271 13.8502C113.972 47.3574 134.076 79.5243 160.882 100.969C187.688 122.413 201.091 147.879 201.091 174.685C201.091 187.005 198.664 199.205 193.949 210.588C189.234 221.971 182.324 232.313 173.612 241.025C164.9 249.737 154.557 256.648 143.174 261.363C131.791 266.078 119.591 268.505 107.271 268.505C94.9501 268.505 82.7501 266.078 71.3674 261.363C59.9846 256.648 49.6419 249.737 40.9299 241.025C32.2179 232.313 25.3072 221.971 20.5923 210.588C15.8774 199.205 13.4507 187.005 13.4507 174.685C13.4507 159.231 19.2541 143.938 26.8536 134.476C26.8536 143.363 30.3838 151.885 36.6676 158.169C42.9514 164.453 51.4741 167.983 60.3607 167.983Z" fill="black" stroke="#CE69F6" stroke-width="26.8057" stroke-linecap="round" stroke-linejoin="round"/>
</svg>
